<svg width="215" height="36" viewBox="0 0 215 36" fill="none" xmlns="http://www.w3.org/2000/svg">
<path d="M21.72 29.52V36H0.984V0.815998H8.28V29.52H21.72ZM32.7281 36H25.3361L37.0001 0.815998H46.0241L57.5921 36H50.0081L47.3681 27.408H35.3201L32.7281 36ZM41.1761 7.44L37.0481 21.216H45.5921L41.4161 7.44H41.1761ZM77.6018 36H61.1858V30.192H65.7458V6.624H61.1858V0.815998H77.6018V6.624H73.0418V30.192H77.6018V36ZM91.0511 36H84.1871V0.815998H92.1551L102.187 18.048L105.547 25.2H105.739V0.815998H112.603V36H104.635L94.6031 18.768L91.1951 11.616H91.0511V36ZM124.978 36H117.586L129.25 0.815998H138.274L149.842 36H142.258L139.618 27.408H127.57L124.978 36ZM133.426 7.44L129.298 21.216H137.842L133.666 7.44H133.426ZM161.98 36H154.684V0.815998H171.1C173.244 0.815998 175.116 1.28 176.716 2.208C178.316 3.136 179.532 4.448 180.364 6.144C181.228 7.808 181.66 9.728 181.66 11.904C181.66 14.112 181.228 16.048 180.364 17.712C179.532 19.376 178.316 20.672 176.716 21.6C175.116 22.528 173.244 22.992 171.1 22.992H161.98V36ZM161.98 7.152V16.656H170.284C171.468 16.656 172.396 16.352 173.068 15.744C173.772 15.104 174.124 14.192 174.124 13.008V10.8C174.124 9.616 173.772 8.72 173.068 8.112C172.396 7.472 171.468 7.152 170.284 7.152H161.98ZM194.745 36H187.449V0.815998H203.865C206.009 0.815998 207.881 1.28 209.481 2.208C211.081 3.136 212.297 4.448 213.129 6.144C213.993 7.808 214.425 9.728 214.425 11.904C214.425 14.112 213.993 16.048 213.129 17.712C212.297 19.376 211.081 20.672 209.481 21.6C207.881 22.528 206.009 22.992 203.865 22.992H194.745V36ZM194.745 7.152V16.656H203.049C204.233 16.656 205.161 16.352 205.833 15.744C206.537 15.104 206.889 14.192 206.889 13.008V10.8C206.889 9.616 206.537 8.72 205.833 8.112C205.161 7.472 204.233 7.152 203.049 7.152H194.745Z" fill="url(#paint0_linear_244_161)"/>
<defs>
<linearGradient id="paint0_linear_244_161" x1="-3" y1="21" x2="217" y2="21" gradientUnits="userSpaceOnUse">
<stop stop-color="#FFB827"/>
<stop offset="0.5" stop-color="#C21761"/>
<stop offset="0.75" stop-color="#00C6C0"/>
</linearGradient>
</defs>
</svg>
